<svg xmlns="http://www.w3.org/2000/svg" width="26" height="33" viewBox="0 0 26 33">
    <g fill="#CE7C2A" fill-rule="evenodd">
        <path d="M13.672 11.602c.136-.049.309-.288.318-.44.2-3.657-2.627-8.534-3.645-10.162-.82.349-1.617.913-2.353 1.773 0 0-1.47 1.054-1.992 6.177 2.75 3.805 6.167 3.183 7.672 2.652z"/>
        <path fill-rule="nonzero" d="M24.974 4.821l-4.665-1.235s-.133-1.222-1.456-1.724c-.964-.366-4.287-2.439-7.555-1.707 1.236 2.042 3.985 7.074 3.767 11.099-.032.633-.496 1.287-1.053 1.486a8.012 8.012 0 0 1-2.666.462c-1.693 0-3.819-.565-5.735-2.738-.037.69-.059 1.437-.062 2.245-.022 4.167-4.9 8.119-4.9 8.119L0 22.288c1.326 3.116 3.404 5.78 5.985 7.712.117-1.99.577-3.55 1.11-4.721 1.008-2.226 2.423-3.46 3.145-3.983.155-4.593 1.529-5.936 2.675-6.243a1.13 1.13 0 0 1 1.015.225c.332.27.546.713.567 1.19.06 1.235.732 2.101 1.05 2.446.517.052 1.011.14 1.476.263l.042-.433.355-3.742c.06-.632.584-1.164 1.163-1.254 2.198-.348 7.097-1.761 7.415-7.505.037-.633-.456-1.27-1.024-1.422zm-7.268 1.335c-.33 0-.597-.29-.597-.647 0-.357.268-.646.597-.646.33 0 .595.289.595.646 0 .357-.266.647-.595.647z"/>
        <path fill-rule="nonzero" d="M20.59 23.02c-.18-1.625-2.328-2.964-5.103-3.154 0 0-1.474-1.21-1.573-3.3-.016-.316-.237-.63-.525-.555-.742.195-2 1.212-2.064 5.858 0 0-4.033 2.174-4.325 8.441A16.81 16.81 0 0 0 15.815 33l-.036-.898c-.013-.316.202-.663.479-.774l3.436-1.376s1.611.096 2.281-1.196a8.85 8.85 0 0 1 .887-1.4.615.615 0 0 0-.026-.807c-.702-.723-2.113-2.313-2.247-3.528zm-2.039 1.574c-.333 0-.604-.287-.604-.644 0-.358.27-.647.604-.647.334 0 .605.289.605.647 0 .357-.27.644-.605.644z"/>
    </g>
</svg>
