<svg xmlns="http://www.w3.org/2000/svg" width="27" height="28" viewBox="0 0 27 28">
    <g fill="#FFF" fill-rule="evenodd">
        <path d="M3.552 6.66c.887-1.332 1.923-2.44 3.065-3.259.452-.325.526-.94.105-1.35C4.602-.004 2.037-.113 1.48.056.834.249-.81.538.48 1.711c.806.733 1.61 3.054 2.099 4.692.206.69.617.79.972.257zM25.52.055c-.556-.17-3.123-.06-5.242 1.997-.421.409-.346 1.024.106 1.349 1.14.819 2.176 1.926 3.063 3.26.354.532.765.432.97-.258.49-1.636 1.295-3.96 2.102-4.694 1.29-1.172-.353-1.46-.998-1.654z"/>
        <path fill-rule="nonzero" d="M13.5 4C7.15 4 2 9.372 2 16s5.149 12 11.5 12S25 22.628 25 16 19.851 4 13.5 4zm3.005 6.85c.467 0 .849.397.849.885s-.382.885-.849.885c-.467 0-.848-.397-.848-.885s.38-.885.848-.885zm-5.962 0c.468 0 .85.397.85.885s-.382.885-.85.885c-.467 0-.848-.397-.848-.885s.381-.885.848-.885zm5.173 11.923h-4.543c-2.29 0-4.152-1.763-4.152-3.93 0-2.166 1.862-3.928 4.152-3.928h4.543c2.29 0 4.153 1.762 4.153 3.929 0 2.166-1.862 3.93-4.153 3.93z"/>
        <path fill-rule="nonzero" d="M15.821 16h-4.64C9.424 16 8 17.342 8 19c0 1.657 1.425 3 3.18 3h4.641C17.577 22 19 20.657 19 19c.001-1.658-1.423-3-3.179-3zm-3.957 3.595c-.23.447-.948.717-.856-.255.037-.384.194-.752.37-1.056.288-.495.628-.306.622.284-.004.412-.036.833-.136 1.027zm3.271 0c-.1-.193-.13-.614-.135-1.028-.006-.589.335-.779.622-.282.177.303.333.671.37 1.056.092.971-.627.702-.857.254z"/>
    </g>
</svg>
