<svg xmlns="http://www.w3.org/2000/svg" width="26" height="30" viewBox="0 0 26 30">
    <g fill="none" fill-rule="evenodd">
        <g fill="#FFF">
            <path d="M8.939 3.66c-.389.352-1.264.85-2.017 1.075-.52.155-.98.18-1.182-.066-.494-.599.756-2.583 1.412-3.179.657-.596 1.589-.594 2.083.005.138.169.228.367.27.579.106.537-.095 1.158-.566 1.585z"/>
            <path d="M7.108 1.65c0 .6-.265 1.797-.662 2.545-.205.39-.446.657-.704.657-.755 0-1.366-2.29-1.366-3.201C4.376.739 4.987 0 5.742 0c.304 0 .584.12.811.323.336.3.555.784.555 1.328z"/>
            <path d="M5.63 4.932c-.494.6-2.543-.414-3.2-1.01-.657-.596-.789-1.566-.295-2.165.119-.144.263-.254.423-.328.504-.237 1.16-.129 1.658.324.404.367 1.033 1.258 1.341 2.03.194.483.262.918.072 1.149zM12.273 29.093h-.745V25.43a.443.443 0 0 0-.431-.453.443.443 0 0 0-.432.453v3.663H8.558a.443.443 0 0 0-.432.454c0 .25.194.453.432.453h3.715a.443.443 0 0 0 .432-.453.443.443 0 0 0-.432-.454z"/>
            <path d="M13.405 21.743c-.503 2.251-1.005 3.568-1.486 4.242-1.837 2.576-3.358-4.242-3.358-4.242h4.844zM4.376 10.549H.37a.332.332 0 0 1-.323-.34c0-1.208.933-2.188 2.083-2.188h2.247v2.528zM5.177 10.549H.847c0 1.396 1.077 2.527 2.406 2.527h1.924v-2.527z"/>
            <path d="M20.404 13.34l-.136 1.618c-.214 3.032-1.84 5.78-4.374 7.251l-.135.077a8.187 8.187 0 0 1-3.995 1.042h-.093c-4.744 0-8.589-4.038-8.589-9.02V7.895c0-1.882 1.462-3.424 3.252-3.434h.017c.9 0 1.717.387 2.31 1.01.592.622.96 1.48.96 2.424v1.54c0 2.159 1.667 3.909 3.723 3.909h3.997v-.004h3.063z"/>
            <path d="M20.404 13.34l-.136 1.618c-.214 3.032-1.84 5.78-4.374 7.251l-.135.077a8.152 8.152 0 0 1-1.9.224h-.093c-4.744 0-8.589-4.039-8.589-9.02V7.075a3.5 3.5 0 0 1 1.157-2.615h.017c.9 0 1.717.387 2.31 1.01.592.622.96 1.48.96 2.424v1.54c0 2.159 1.667 3.909 3.723 3.909h3.997v-.004h3.063z"/>
            <path d="M24.783 17.759c-.203.232-.47.374-.765.43-.56.106-1.223-.102-1.746-.606-.597-.576-1.775-2.26-2.084-3.354-.104-.37-.11-.67.039-.84.589-.674 3.38.986 4.179 1.756.797.77.966 1.94.377 2.614z"/>
            <path d="M25.906 13.933c-.191.72-.935 1.279-1.847 1.319-.72.032-2.176-.232-3.082-.68-.458-.227-.775-.5-.788-.806-.036-.914 2.655-1.775 3.737-1.823 1.083-.048 1.99.654 2.027 1.567.006.146-.01.287-.047.423z"/>
            <path d="M24.127 12.132c-.513.556-1.827 1.609-2.812 2.023-.462.196-.852.25-1.051.047-.626-.636.844-3.556 1.598-4.374.754-.818 1.872-.964 2.498-.329.09.091.163.193.223.303.36.663.19 1.629-.456 2.33z"/>
        </g>
        <circle cx="5" cy="8" r="1" fill="#CE7C2A" fill-rule="nonzero"/>
    </g>
</svg>
