<svg xmlns="http://www.w3.org/2000/svg" width="34" height="30" viewBox="0 0 34 30">
    <g fill="#FFF" fill-rule="evenodd">
        <path fill-rule="nonzero" d="M28.328 17.89v-5.643c0-2.775-1.126-5.385-3.171-7.348l-.079-.072v-3.78C25.078.469 24.59 0 23.988 0c-.602 0-1.09.469-1.09 1.047v2.178c-3.427-1.915-7.58-1.765-10.795.011v-2.19C12.103.47 11.615 0 11.013 0c-.603 0-1.091.469-1.091 1.047V4.8c-2.061 1.9-3.25 4.533-3.25 7.446v5.643C5.008 18.932 4 20.696 4 22.636v1.69C4 27.454 6.652 30 9.913 30h15.174C28.347 30 31 27.454 31 24.326v-1.69c0-1.94-1.009-3.705-2.672-4.746zm-12.823 6.843c0 .578-.488 1.047-1.09 1.047-.602 0-1.09-.469-1.09-1.047V22.23c0-.578.488-1.047 1.09-1.047.602 0 1.09.469 1.09 1.047v2.504zm6.17 0c0 .578-.488 1.047-1.09 1.047-.602 0-1.09-.469-1.09-1.047V22.23c0-.578.488-1.047 1.09-1.047.602 0 1.09.469 1.09 1.047v2.504zm4.473-7.68c-1.498-.26-16.912-.068-17.295 0v-4.806l.001-.092c5.222.497 9.974-3.013 10.83-7.957a8.713 8.713 0 0 1 3.93 2.181c1.634 1.568 2.533 3.652 2.533 5.868v4.805z"/>
        <path d="M5 8H.962C.431 8 0 8.405 0 8.905c0 2.157 1.777 3.93 4.026 4.095 0-.867-.092-2.73.974-5zM33.037 8H29c.99 2.11.97 3.797.97 5C32.22 12.835 34 11.062 34 8.905c0-.5-.431-.905-.963-.905z"/>
        <circle cx="12.5" cy="13.5" r="1.5"/>
        <circle cx="21.5" cy="13.5" r="1.5"/>
    </g>
</svg>
