<svg xmlns="http://www.w3.org/2000/svg" width="14" height="20" viewBox="0 0 14 20">
    <g fill="#4C4947" fill-rule="evenodd">
        <path d="M7 5c1.103 0 2 .897 2 2s-.897 2-2 2-2-.897-2-2 .897-2 2-2z"/>
        <path fill-rule="nonzero" d="M7 0c3.86 0 7 3.112 7 6.936 0 1.312-.372 2.59-1.075 3.696L7 20l-5.925-9.368A6.873 6.873 0 0 1 0 6.936C0 3.112 3.14 0 7 0zm0 11.272c2.412 0 4.375-1.945 4.375-4.336 0-2.39-1.963-4.335-4.375-4.335S2.625 4.546 2.625 6.936c0 2.39 1.963 4.336 4.375 4.336z"/>
    </g>
</svg>
