<svg xmlns="http://www.w3.org/2000/svg" width="19" height="21" viewBox="0 0 19 21">
    <path fill="#4C4947" fill-rule="evenodd" d="M18.084 16.849l-2.54-3.2c-.506-.634-1.475-.753-2.16-.264l-1.674 1.196a44.324 44.324 0 0 1-.27-.195c-.863-.622-2.045-1.475-3.209-2.941C7.064 9.975 6.526 8.66 6.133 7.7l-.121-.293 1.123-.802.553-.395c.686-.49.831-1.407.327-2.044l-2.54-3.2C4.971.332 4.001.213 3.315.704l-.937.673.02.025A4.532 4.532 0 0 0 1.09 3.562c-.816 2.996.258 5.99 3.706 10.333 4.766 6.003 9.254 6.23 9.448 6.238.423.012.835-.027 1.262-.12.459-.1.897-.263 1.287-.476l.016.018.946-.662c.685-.49.832-1.407.328-2.044z"/>
</svg>
