<svg xmlns="http://www.w3.org/2000/svg" width="14" height="17" viewBox="0 0 14 17">
    <path fill="#CE7C2A" fill-rule="evenodd" d="M13.599 14.149l-1.995-2.625c-.398-.521-1.164-.615-1.709-.208l-1.33.994a34.59 34.59 0 0 1-.213-.16c-.68-.509-1.612-1.206-2.526-2.41C4.91 8.534 4.49 7.453 4.183 6.663l-.095-.24.893-.667.44-.328c.545-.408.664-1.164.268-1.686L3.694 1.116C3.298.595 2.531.501 1.986.908l-.745.56.015.02c-.258.247-.486.54-.67.867-.172.31-.295.612-.375.921-.66 2.474.177 4.937 2.885 8.5 3.744 4.926 7.296 5.093 7.449 5.099.335.007.662-.027 1-.105a3.81 3.81 0 0 0 1.02-.4l.013.015.752-.55c.545-.407.665-1.163.269-1.686z"/>
</svg>
