<svg xmlns="http://www.w3.org/2000/svg" width="18" height="18" viewBox="0 0 18 18">
    <path fill="#CE7C2A" fill-rule="nonzero" d="M9 0a9 9 0 1 1 0 18A9 9 0 0 1 9 0zM8.38 10.1c0 .024.004.048.007.071.002.018.003.036.007.054.004.018.011.036.017.054.007.022.014.044.023.065l.004.01c.013.03.03.057.046.082l.004.005a.62.62 0 0 0 .065.08l.02.019c.021.02.043.037.066.054l.022.015c.03.02.06.037.093.051l.021.008a.626.626 0 0 0 .227.044c.007 0 .015-.003.023-.003a.626.626 0 0 0 .106-.011l.032-.01a.632.632 0 0 0 .093-.032l.01-.004 3.451-1.628a.623.623 0 0 0-.53-1.126l-2.563 1.21V3.734a.622.622 0 0 0-1.245 0V10.1z"/>
</svg>
