<svg xmlns="http://www.w3.org/2000/svg" width="14" height="20" viewBox="0 0 14 20">
    <g fill="#CE7C2A" fill-rule="evenodd">
        <path d="M7 4C5.346 4 4 5.346 4 7s1.346 3 3 3 3-1.346 3-3-1.346-3-3-3z"/>
        <path fill-rule="nonzero" d="M7 0C3.14 0 0 3.112 0 6.936c0 1.312.372 2.59 1.075 3.696L7 20l5.925-9.368A6.873 6.873 0 0 0 14 6.936C14 3.112 10.86 0 7 0zm0 11.272c-2.412 0-4.375-1.945-4.375-4.336 0-2.39 1.963-4.335 4.375-4.335s4.375 1.945 4.375 4.335c0 2.39-1.963 4.336-4.375 4.336z"/>
    </g>
</svg>
