<svg xmlns="http://www.w3.org/2000/svg" width="20" height="20" viewBox="0 0 20 20">
    <g fill="#ACACAC" fill-rule="evenodd">
        <path d="M9.881 11.358c.302 0 .49-.184.49-.587v-.066c0-.423-.188-.582-.494-.582-.293 0-.494.149-.494.536v.112c0 .404.192.587.498.587z"/>
        <path fill-rule="nonzero" d="M5.64 5.64a19.255 19.255 0 0 0-.455 4.237 19.257 19.257 0 0 0 .455 4.237c1.39.307 2.812.46 4.237.454a19.256 19.256 0 0 0 4.237-.454c.307-1.392.46-2.813.454-4.237a19.255 19.255 0 0 0-.454-4.237 19.257 19.257 0 0 0-4.237-.455 19.255 19.255 0 0 0-4.237.455zm2.336 4.905c0 .735-.484 1.014-1.087 1.014-.748 0-1.04-.461-1.04-.831 0-.183.077-.233.282-.233.242 0 .306.064.306.21 0 .205.183.333.475.333.343 0 .49-.146.49-.493v-.086c0-.338-.211-.434-.503-.434-.133 0-.18-.114-.18-.233 0-.114.047-.233.179-.233.228 0 .42-.054.42-.447 0-.301-.156-.402-.402-.402-.297 0-.407.124-.407.306 0 .137-.064.228-.283.228-.265 0-.306-.064-.306-.255 0-.324.227-.795.999-.795.552 0 .96.21.96.817 0 .361-.136.653-.36.758.27.105.457.31.457.69v.086zm3.8-1.305c0-.762.457-1.046 1.06-1.046.602 0 1.062.284 1.062 1.046v1.273c0 .763-.46 1.046-1.063 1.046-.602 0-1.058-.283-1.058-1.046V9.24zm-.833-.21c0 .187-.092.246-.279.246-.164 0-.31-.045-.31-.223 0-.215-.215-.338-.466-.338-.31 0-.497.164-.497.525v.497c.132-.178.367-.232.604-.232.516 0 .942.223.942.944v.064c0 .763-.456 1.046-1.058 1.046-.603 0-1.063-.283-1.063-1.046V9.24c0-.762.472-1.046 1.093-1.046.73 0 1.034.452 1.034.836z"/>
        <path d="M13.82 2.594c.405.846.722 1.73.945 2.641.91.223 1.795.54 2.64.945 1.016.497 1.807 1.08 2.348 1.721A10.026 10.026 0 0 0 12.1.247c.64.541 1.224 1.332 1.721 2.347zM13.084 11.111c.302 0 .496-.157.496-.502V9.391c0-.345-.194-.502-.496-.502-.306 0-.491.157-.491.502v1.218c0 .345.185.502.491.502zM5.926 4.938A20.402 20.402 0 0 1 10 4.54c1.368-.004 2.733.13 4.074.398a12.242 12.242 0 0 0-.813-2.157C12.371.988 11.212 0 10 0 8.787 0 7.63.988 6.738 2.781c-.338.693-.61 1.415-.812 2.157zM17.219 6.738a12.233 12.233 0 0 0-2.157-.812c.269 1.34.402 2.706.398 4.074a20.402 20.402 0 0 1-.398 4.074 12.248 12.248 0 0 0 2.157-.813C19.012 12.371 20 11.212 20 10c0-1.213-.988-2.37-2.781-3.262zM6.18 17.406a13.586 13.586 0 0 1-.945-2.641c-.91-.223-1.795-.54-2.64-.945-1.016-.497-1.807-1.08-2.348-1.721A10.026 10.026 0 0 0 7.9 19.753c-.64-.541-1.224-1.332-1.721-2.347zM14.074 15.062c-1.34.269-2.706.402-4.074.398a20.402 20.402 0 0 1-4.074-.398c.202.742.474 1.464.812 2.157C7.63 19.012 8.788 20 10 20c1.212 0 2.37-.988 3.261-2.781.339-.693.61-1.415.813-2.157zM17.406 13.82c-.846.405-1.73.722-2.641.945-.223.91-.54 1.795-.945 2.64-.497 1.016-1.08 1.807-1.721 2.348a10.026 10.026 0 0 0 7.654-7.654c-.541.64-1.332 1.224-2.347 1.721zM2.78 13.261c.692.339 1.413.61 2.155.813A20.353 20.353 0 0 1 4.537 10a20.364 20.364 0 0 1 .401-4.074c-.743.202-1.465.474-2.158.812C.982 7.628 0 8.787 0 10v.002c0 1.212.983 2.37 2.78 3.26zM2.594 6.18c.846-.405 1.73-.722 2.641-.945.223-.91.54-1.795.945-2.64C6.677 1.578 7.26.787 7.901.246A10.026 10.026 0 0 0 .247 7.9c.541-.64 1.332-1.224 2.347-1.721z"/>
    </g>
</svg>
