<svg height="30" viewBox="0 0 34 30" width="34" xmlns="http://www.w3.org/2000/svg"><g fill="#ce7c2a" fill-rule="evenodd"><path d="m28.328 17.89v-5.643c0-2.775-1.126-5.385-3.171-7.348l-.079-.072v-3.78c0-.578-.488-1.047-1.09-1.047s-1.09.469-1.09 1.047v2.178c-3.427-1.915-7.58-1.765-10.795.011v-2.19c0-.576-.488-1.046-1.09-1.046-.603 0-1.091.469-1.091 1.047v3.753c-2.061 1.9-3.25 4.533-3.25 7.446v5.643c-1.664 1.043-2.672 2.807-2.672 4.747v1.69c0 3.128 2.652 5.674 5.913 5.674h15.174c3.26 0 5.913-2.546 5.913-5.674v-1.69c0-1.94-1.009-3.705-2.672-4.746zm-12.823 6.843c0 .578-.488 1.047-1.09 1.047s-1.09-.469-1.09-1.047v-2.503c0-.578.488-1.047 1.09-1.047s1.09.469 1.09 1.047v2.504zm6.17 0c0 .578-.488 1.047-1.09 1.047s-1.09-.469-1.09-1.047v-2.503c0-.578.488-1.047 1.09-1.047s1.09.469 1.09 1.047v2.504zm4.473-7.68c-1.498-.26-16.912-.068-17.295 0v-4.806l.001-.092c5.222.497 9.974-3.013 10.83-7.957a8.713 8.713 0 0 1 3.93 2.181c1.634 1.568 2.533 3.652 2.533 5.868v4.805z" fill-rule="nonzero"/><path d="m5 8h-4.038c-.531 0-.962.405-.962.905 0 2.157 1.777 3.93 4.026 4.095 0-.867-.092-2.73.974-5zm28.037 0h-4.037c.99 2.11.97 3.797.97 5 2.25-.165 4.03-1.938 4.03-4.095 0-.5-.431-.905-.963-.905z"/><circle cx="12.5" cy="13.5" r="1.5"/><circle cx="21.5" cy="13.5" r="1.5"/></g></svg>