<svg xmlns="http://www.w3.org/2000/svg" width="22" height="22" viewBox="0 0 22 22">
    <g fill="#CE7C2A" fill-rule="evenodd">
        <path d="M9.308 0H.846A.846.846 0 0 0 0 .846v8.462c0 .467.379.846.846.846h8.462a.846.846 0 0 0 .846-.846V.846A.846.846 0 0 0 9.308 0zM21.154 0h-8.462a.846.846 0 0 0-.846.846v8.462c0 .467.379.846.846.846h8.462A.846.846 0 0 0 22 9.308V.846A.846.846 0 0 0 21.154 0zM9.308 11.846H.846a.846.846 0 0 0-.846.846v8.462c0 .467.379.846.846.846h8.462a.846.846 0 0 0 .846-.846v-8.462a.846.846 0 0 0-.846-.846zM21.154 11.846h-8.462a.846.846 0 0 0-.846.846v8.462c0 .467.379.846.846.846h8.462a.846.846 0 0 0 .846-.846v-8.462a.846.846 0 0 0-.846-.846z"/>
    </g>
</svg>
