<svg xmlns="http://www.w3.org/2000/svg" width="27" height="20" viewBox="0 0 27 20">
    <g fill="#ACACAC" fill-rule="evenodd">
        <path d="M2.736 0H.547C.245 0 0 .258 0 .577v2.308c0 .318.245.577.547.577h2.19c.302 0 .547-.259.547-.577V.577C3.284.258 3.039 0 2.736 0zM2.736 8.462H.547c-.302 0-.547.258-.547.576v2.308c0 .319.245.577.547.577h2.19c.302 0 .547-.258.547-.577V9.038c0-.318-.245-.576-.548-.576zM2.736 16.154H.547c-.302 0-.547.258-.547.577v2.307c0 .32.245.577.547.577h2.19c.302 0 .547-.258.547-.577v-2.307c0-.32-.245-.577-.548-.577zM25.821.77H6.378c-.299 0-.54.304-.54.681v1.364c0 .377.241.682.54.682H25.82c.299 0 .54-.305.54-.682V1.45c0-.377-.241-.682-.54-.682zM25.821 8.462H6.378c-.299 0-.54.305-.54.681v1.364c0 .377.241.682.54.682H25.82c.299 0 .54-.305.54-.682V9.143c0-.376-.241-.681-.54-.681zM25.821 16.923H6.378c-.299 0-.54.305-.54.682v1.364c0 .376.241.681.54.681H25.82c.299 0 .54-.305.54-.681v-1.364c0-.377-.241-.682-.54-.682z"/>
    </g>
</svg>
