<svg xmlns="http://www.w3.org/2000/svg" width="58" height="58" viewBox="0 0 58 58">
    <g fill="none" fill-rule="evenodd">
        <circle cx="29" cy="29" r="29" fill="#CE7C2A"/>
        <path fill="#FFF" d="M36.84 21.89a.544.544 0 0 0-.41-.166h-3.047c-.202-1.021-.582-1.908-1.14-2.659h4.151a.546.546 0 0 0 .41-.165.588.588 0 0 0 .16-.425V16.59a.588.588 0 0 0-.16-.425.546.546 0 0 0-.41-.166H21.57a.546.546 0 0 0-.41.166.588.588 0 0 0-.16.425v2.456c0 .16.056.298.17.415a.539.539 0 0 0 .4.176h2.584c2.506 0 4.097.695 4.774 2.086H21.57a.544.544 0 0 0-.41.166.588.588 0 0 0-.16.425v1.884c0 .172.053.314.16.424.107.111.244.166.41.166h7.608c-.261 1.01-.87 1.78-1.826 2.309-.957.53-2.218.794-3.786.794H21.57a.539.539 0 0 0-.4.175.578.578 0 0 0-.17.416v2.345c0 .16.053.296.16.406 2.28 2.512 5.239 6.026 8.873 10.544a.519.519 0 0 0 .446.222h3.474c.25 0 .422-.11.517-.333.119-.221.095-.43-.072-.627-3.468-4.408-6.194-7.707-8.178-9.898 2.02-.246 3.659-.924 4.918-2.031 1.26-1.108 2.025-2.549 2.299-4.321h2.993a.544.544 0 0 0 .41-.167.585.585 0 0 0 .16-.424v-1.883a.586.586 0 0 0-.16-.425z"/>
    </g>
</svg>
