<svg height="58" viewBox="0 0 58 58" width="58" xmlns="http://www.w3.org/2000/svg"><g fill="none" fill-rule="evenodd"><circle cx="29" cy="29" fill="#ce7c2a" r="29"/><g fill="#fff"><path d="m25 31.728a.728.728 0 0 0 -.729-.728h-2.543a.728.728 0 0 0 -.728.728v2.543c0 .403.326.729.728.729h2.543a.729.729 0 0 0 .729-.729zm6 0a.728.728 0 0 0 -.728-.728h-2.544a.728.728 0 0 0 -.728.728v2.543c0 .403.326.729.728.729h2.544a.728.728 0 0 0 .728-.729zm6 0a.728.728 0 0 0 -.728-.728h-2.543a.728.728 0 0 0 -.729.728v2.543c0 .403.326.729.729.729h2.543a.729.729 0 0 0 .728-.729zm-12 6.001a.728.728 0 0 0 -.729-.729h-2.543a.728.728 0 0 0 -.728.729v2.542c0 .403.326.729.728.729h2.543a.729.729 0 0 0 .729-.729v-2.541zm6 0a.728.728 0 0 0 -.728-.729h-2.544a.728.728 0 0 0 -.728.729v2.542c0 .403.326.729.728.729h2.544a.728.728 0 0 0 .728-.729v-2.541zm6 0a.728.728 0 0 0 -.728-.729h-2.543a.728.728 0 0 0 -.729.729v2.542c0 .403.326.729.729.729h2.543a.728.728 0 0 0 .728-.729v-2.541z"/><path d="m41.33 18.013v3.674c0 1.66-1.361 2.998-3.038 2.998h-1.917c-1.677 0-3.056-1.338-3.056-2.998v-3.687h-8.638v3.687c0 1.66-1.379 2.998-3.056 2.998h-1.917c-1.677 0-3.038-1.338-3.038-2.998v-3.674c-1.465.044-2.67 1.245-2.67 2.72v21.529a2.75 2.75 0 0 0 2.75 2.738h24.5a2.753 2.753 0 0 0 2.75-2.738v-21.529c0-1.475-1.204-2.676-2.67-2.72zm-.89 22.908c0 .65-.533 1.177-1.19 1.177h-20.552a1.183 1.183 0 0 1 -1.189-1.177v-11.12c0-.65.532-1.177 1.189-1.177h20.552c.656 0 1.189.527 1.189 1.177v11.12z" fill-rule="nonzero"/><path d="m19.047 22h1.906c.577 0 1.047-.456 1.047-1.02v-5.96c0-.563-.469-1.02-1.047-1.02h-1.906c-.577 0-1.047.457-1.047 1.02v5.96c0 .564.469 1.02 1.047 1.02zm18 0h1.906c.578 0 1.047-.456 1.047-1.02v-5.96c0-.563-.469-1.02-1.047-1.02h-1.906c-.577 0-1.047.457-1.047 1.02v5.96c0 .564.469 1.02 1.047 1.02z"/></g></g></svg>