<svg xmlns="http://www.w3.org/2000/svg" width="58" height="58" viewBox="0 0 58 58">
    <g fill="none" fill-rule="evenodd">
        <circle cx="29" cy="29" r="29" fill="#CE7C2A"/>
        <path fill="#FFF" fill-rule="nonzero" d="M44.52 30.389c-.985-1.188-2.245-1.957-3.78-2.31a4.058 4.058 0 0 0 .726-2.352c0-1.204-.443-2.233-1.328-3.085-.885-.852-1.954-1.278-3.205-1.278-1.122 0-2.101.352-2.94 1.056-.696-1.636-1.809-2.948-3.337-3.937A9.118 9.118 0 0 0 25.6 17c-2.503 0-4.64.852-6.41 2.557-1.772 1.704-2.657 3.761-2.657 6.17 0 .148.012.392.036.733a7.67 7.67 0 0 0-3.33 2.813A7.27 7.27 0 0 0 12 33.363c0 2.103.776 3.901 2.329 5.395C15.88 40.253 17.749 41 19.933 41H39.2c1.877 0 3.48-.64 4.808-1.918C45.336 37.804 46 36.262 46 34.454c0-1.522-.493-2.877-1.48-4.065zm-9.621-.334a.588.588 0 0 1-.409.157h-4.073v5.837a.489.489 0 0 1-.173.373.586.586 0 0 1-.409.157h-3.491a.585.585 0 0 1-.41-.157.49.49 0 0 1-.172-.373v-5.837h-4.073c-.17 0-.31-.05-.418-.148a.493.493 0 0 1-.164-.382c0-.132.06-.265.182-.398l6.382-5.819c.11-.1.249-.15.418-.15.17 0 .31.05.419.15l6.4 5.836c.11.1.163.226.163.381a.49.49 0 0 1-.172.373z"/>
    </g>
</svg>
