<svg xmlns="http://www.w3.org/2000/svg" width="42" height="42" viewBox="0 0 42 42">
    <g fill="none" fill-rule="evenodd">
        <circle cx="21" cy="21" r="21" fill="#CE7C2A"/>
        <g fill="#FFF">
            <path d="M29.461 16.188l-.272.085-1.447.129-.41.65-.296-.094-1.152-1.034-.167-.538-.224-.573-.724-.647-.855-.166-.02.39.837.812.41.48-.46.24-.375-.11-.562-.233.02-.451-.738-.302-.244 1.06-.743.168.073.59.968.186.167-.945.799.118.371.216h.596l.408.813 1.081 1.092-.08.424-.87-.11-1.507.757-1.085 1.294-.14.574h-.39l-.725-.333-.705.333.175.74.307-.352.539-.017-.038.664.447.13.446.5.728-.205.832.131.966.258.482.057.818.924 1.579.924-1.021 1.941-1.078.499-.409 1.11-1.56 1.035-.165.598C28.034 29.044 31 25.48 31 21.219a8.973 8.973 0 0 0-1.539-5.031zM21.604 25.918l-.627-1.154.575-1.191-.575-.171-.647-.644-1.433-.32-.475-.987v.586h-.21l-1.234-1.66v-1.365l-.905-1.46-1.437.254h-.968l-.487-.317.621-.489-.62.142A8.448 8.448 0 0 0 12 21.451C12 26.17 15.856 30 20.614 30c.366 0 .725-.032 1.08-.075l-.09-1.035S22 27.35 22 27.3c0-.054-.396-1.382-.396-1.382z"/>
            <path fill-rule="nonzero" d="M16.313 14.66l1.633-.204.752-.37.847.219 1.353-.067.463-.654.676.1 1.642-.139.452-.447.638-.383.902.122.329-.044A10.034 10.034 0 0 0 22.088 12c-2.853 0-5.404 1.167-7.088 3h.005l1.308-.34zm6.163-1.84l.939-.463.602.312-.872.596-.833.076-.375-.219.54-.301zm-2.78.068l.414.155.543-.155.295.46-1.252.295-.602-.316s.589-.34.602-.439z"/>
        </g>
    </g>
</svg>
