<svg xmlns="http://www.w3.org/2000/svg" width="42" height="42" viewBox="0 0 42 42">
    <g fill="none" fill-rule="evenodd">
        <circle cx="21" cy="21" r="21" fill="#CE7C2A"/>
        <path fill="#FFF" fill-rule="nonzero" d="M31.601 27.187a.872.872 0 0 0 .046-.278V16.692a.88.88 0 0 0-.882-.877h-4.912V26.69c0 .175-.032.342-.088.497h-.576a.872.872 0 0 0 .046-.278V12.877a.88.88 0 0 0-.882-.877h-7.706a.88.88 0 0 0-.882.877v14.032c0 .097.016.191.046.278h-.576a1.463 1.463 0 0 1-.088-.497V15.815h-4.794a.88.88 0 0 0-.882.877V26.91c0 .097.016.191.046.278H8V29h25v-1.813h-1.399zM12 23h-1v-1h1v1zm0-2h-1v-1h1v1zm0-2h-1v-1h1v1zm2 4h-1v-1h1v1zm0-2h-1v-1h1v1zm0-2h-1v-1h1v1zm9 8h-4v-5h4v5zm-2-9a3 3 0 1 1 0-6 3 3 0 0 1 0 6zm7 5h-1v-1h1v1zm0-2h-1v-1h1v1zm0-2h-1v-1h1v1zm2 4h-1v-1h1v1zm0-2h-1v-1h1v1zm0-2h-1v-1h1v1zm-8.214-4.787H23v1.573h-1.214V17h-1.572v-1.214H19v-1.573h1.214V13h1.572v1.213z"/>
    </g>
</svg>
