<svg xmlns="http://www.w3.org/2000/svg" width="42" height="42" viewBox="0 0 42 42">
    <g fill="none" fill-rule="evenodd">
        <circle cx="21" cy="21" r="21" fill="#CE7C2A"/>
        <path fill="#FFF" fill-rule="nonzero" d="M31 20.912c-1.077-2.84-3.918-4.309-7.052-3.721-3.036-3.036-7.247-5.093-11.458-5.191-.294 0-.49.196-.49.49.098 4.211 2.155 8.422 5.093 11.458-.49 3.037.881 5.975 3.721 7.052-.49-1.273-.587-2.742-.195-4.211.49.293.979.587 1.469.783.196.098.391.098.587-.098l4.897-4.897c.098-.098.098-.293 0-.49-.196-.49-.49-.979-.783-1.37 1.469-.392 2.938-.294 4.211.195zm-10.773-.685c-.784.783-1.959.783-2.742 0-.784-.784-.784-1.959 0-2.742.783-.784 1.958-.784 2.742 0 .783.783.783 1.958 0 2.742z"/>
    </g>
</svg>
